# xmcd
#
# Track frame offsets: 
#        150
#        17982
#        36639
#        56245
#        74198
#        93631
#        108572
#        127316
#        145548
#        161463
#
# Disc length: 2404 seconds
#
# Revision: 0
# Processed by: cddbd v1.5.2PL0 Copyright (c) Steve Scherf et al.
# Submitted via: ExactAudioCopy v0.95b4
#
DISCID=a009620a
DTITLE=น้องซิลดี้ มา'์ - แดนเซอร์กระปุ๊กลุก
DYEAR=2008
DGENRE=Country
TTITLE0=แดนเซอร์กระปุ๊กลุก
TTITLE1=ยิ้มเถิดประเทศไทย
TTITLE2=ขายมาลัยให้ค่าเรียน
TTITLE3=หนูจะเป็นเด็กดี
TTITLE4=ไม่ดีนะคะ
TTITLE5=อนุรักษ์การละเล่นเด็กไทย
TTITLE6=อ้อนแม่เข้ากรุงฯ
TTITLE7=เกือบเจอและ
TTITLE8=หนูรักตำราเรียน
TTITLE9=เหนียวจัง
EXTD=
EXTT0=
EXTT1=
EXTT2=
EXTT3=
EXTT4=
EXTT5=
EXTT6=
EXTT7=
EXTT8=
EXTT9=
PLAYORDER=
